<svg xmlns="http://www.w3.org/2000/svg" width="24.95" height="18.513" viewBox="0 0 24.95 18.513">
  <g id="_12" data-name="12" transform="translate(-2.027 -14.458)">
    <g id="Group_33" data-name="Group 33" transform="translate(2.027 14.458)">
      <path id="Path_19" data-name="Path 19" d="M27.332,31.553,26.1,28.875A8.3,8.3,0,0,0,27.227,24.7a8.383,8.383,0,0,0-8.377-8.377,8.237,8.237,0,0,0-3.676.867,7.16,7.16,0,0,0-12.5,4.753,7.18,7.18,0,0,0,.919,3.519l-1,2.206a1.122,1.122,0,0,0,.236,1.287,1.138,1.138,0,0,0,.788.341,1.03,1.03,0,0,0,.473-.105l2.206-1a7.18,7.18,0,0,0,3.519.919,7.865,7.865,0,0,0,1.759-.21,8.388,8.388,0,0,0,7.247,4.2A8.3,8.3,0,0,0,23,31.973l2.678,1.234a1.138,1.138,0,0,0,.5.105,1.236,1.236,0,0,0,.867-.368A1.214,1.214,0,0,0,27.332,31.553ZM9.818,27.667a5.744,5.744,0,0,1-3.072-.893.741.741,0,0,0-.394-.105.529.529,0,0,0-.289.079l-1.812.814.814-1.812a.7.7,0,0,0-.053-.683,6.062,6.062,0,0,1-.893-3.125,5.7,5.7,0,0,1,9.768-3.991,8.583,8.583,0,0,0-3.333,5.409,7.423,7.423,0,0,0-.107,1.339,8.473,8.473,0,0,0,.5,2.836A5.314,5.314,0,0,1,9.818,27.667Zm14.81,1.471,1.129,2.495L23.262,30.5a.7.7,0,0,0-.683.053,7.043,7.043,0,0,1-3.755,1.1,6.932,6.932,0,1,1,6.932-6.932,6.82,6.82,0,0,1-1.1,3.755A.711.711,0,0,0,24.628,29.137Z" transform="translate(-2.488 -14.8)" fill="#7a8fa6"/>
      <circle id="Ellipse_12" data-name="Ellipse 12" cx="1.313" cy="1.313" r="1.313" transform="translate(11.032 8.587)" fill="#7a8fa6"/>
      <circle id="Ellipse_13" data-name="Ellipse 13" cx="1.313" cy="1.313" r="1.313" transform="translate(15.023 8.587)" fill="#7a8fa6"/>
      <circle id="Ellipse_14" data-name="Ellipse 14" cx="1.313" cy="1.313" r="1.313" transform="translate(19.041 8.587)" fill="#7a8fa6"/>
    </g>
  </g>
</svg>
