<svg xmlns="http://www.w3.org/2000/svg" width="17.004" height="17.915" viewBox="0 0 17.004 17.915">
  <g id="Notifications" transform="translate(-1371.269 -42)">
    <path id="Fill_540" data-name="Fill 540" d="M8.5,17.915a2.444,2.444,0,0,1-2.436-2.239H.739a.747.747,0,0,1-.308-1.425,3.234,3.234,0,0,0,1.787-2.519V6.345a6.285,6.285,0,1,1,12.569,0v5.387a3.272,3.272,0,0,0,1.785,2.518.753.753,0,0,1,.415.838.746.746,0,0,1-.723.587H10.938a2.474,2.474,0,0,1-.783,1.59A2.425,2.425,0,0,1,8.5,17.915Zm0-16.422A4.834,4.834,0,0,0,3.7,6.345v5.409c0,.014,0,.028,0,.041a4.188,4.188,0,0,1-.906,2.387H14.215a4.2,4.2,0,0,1-.906-2.387c0-.013,0-.027,0-.041V6.345A4.834,4.834,0,0,0,8.5,1.493Z" transform="translate(1371.269 42)" fill="#7a8fa6"/>
  </g>
</svg>
