<svg id="_13" data-name="13" xmlns="http://www.w3.org/2000/svg" width="16.943" height="19.39" viewBox="0 0 16.943 19.39">
  <g id="Group_32" data-name="Group 32">
    <g id="Group_31" data-name="Group 31">
      <path id="Path_17" data-name="Path 17" d="M64.771,0a4.738,4.738,0,0,1,4.771,4.771A4.771,4.771,0,1,1,64.771,0Zm0,1.529A3.211,3.211,0,0,0,61.59,4.771a3.211,3.211,0,0,0,3.181,3.242,3.242,3.242,0,1,0,0-6.484Z" transform="translate(-56.33)" fill="#7a8fa6"/>
      <path id="Path_18" data-name="Path 18" d="M16.943,174.5a.8.8,0,0,1-1.59,0,6.9,6.9,0,0,0-13.763-.8H13.273a.765.765,0,1,1,0,1.529H.8A.758.758,0,0,1,0,174.5a8.472,8.472,0,1,1,16.943,0Z" transform="translate(0 -155.846)" fill="#7a8fa6"/>
    </g>
  </g>
</svg>
